# xmcd
# 
# Track frame offsets:
#     150
#     21432
#     37782
#     54710
#     77165
#     94150
#     114905
#     137205
#     153805
#     168420
#     183125
#     205195
# 
# Disc length: 2957
# 
# Revision: 2
# Processed by: cddbd v1.5.2PL0 Copyright (c) Steve Scherf et al.
# Submitted via: fre:ac v1.0.31
# 
DISCID=920b8b0c
DTITLE=Gretchen Wilson - Under The Covers
DYEAR=2013
DGENRE=Country
TTITLE0=Stay With Me
TTITLE1=Doctor My Eyes
TTITLE2=Everybody Wants You
TTITLE3=Bell Bottom Blues
TTITLE4=Funk #49
TTITLE5=Hot Blooded
TTITLE6=Over The Hills And Far Away
TTITLE7=I Want You To Want Me
TTITLE8=Lights
TTITLE9=Her Strut
TTITLE10=Bad Company
TTITLE11=Into The Mystic
EXTD=
EXTT0=
EXTT1=
EXTT2=
EXTT3=
EXTT4=
EXTT5=
EXTT6=
EXTT7=
EXTT8=
EXTT9=
EXTT10=
EXTT11=
PLAYORDER=
